<svg xmlns="http://www.w3.org/2000/svg" width="512" height="512" viewBox="0 0 512 512" role="img" aria-label="Engineer AI digest avatar">
  <defs>
    <linearGradient id="bg" x1="52" y1="36" x2="466" y2="472" gradientUnits="userSpaceOnUse">
      <stop stop-color="#0EA5E9"/>
      <stop offset="0.5" stop-color="#1D4ED8"/>
      <stop offset="1" stop-color="#4C1D95"/>
    </linearGradient>
    <filter id="shadow" x="-20%" y="-20%" width="140%" height="140%">
      <feDropShadow dx="0" dy="18" stdDeviation="18" flood-color="#020617" flood-opacity="0.34"/>
    </filter>
  </defs>
  <rect width="512" height="512" rx="112" fill="url(#bg)"/>
  <circle cx="94" cy="118" r="54" fill="#A7F3D0" opacity="0.22"/>
  <circle cx="420" cy="382" r="82" fill="#C4B5FD" opacity="0.24"/>
  <path d="M82 390h74l34-48h80l34 48h126" fill="none" stroke="#BAE6FD" stroke-width="14" stroke-linecap="round" stroke-linejoin="round" opacity="0.74"/>
  <circle cx="82" cy="390" r="13" fill="#BAE6FD"/>
  <circle cx="430" cy="390" r="13" fill="#C4B5FD"/>
  <g filter="url(#shadow)">
    <rect x="82" y="92" width="348" height="292" rx="58" fill="#0F172A"/>
    <rect x="108" y="118" width="296" height="240" rx="42" fill="#F8FAFC"/>
    <path d="M144 318l58-164h46l58 164h-44l-10-34h-54l-10 34h-44Zm65-70h32l-16-54-16 54Z" fill="#1D4ED8"/>
    <rect x="328" y="154" width="44" height="164" rx="12" fill="#14B8A6"/>
    <rect x="310" y="154" width="80" height="34" rx="12" fill="#14B8A6"/>
    <rect x="310" y="284" width="80" height="34" rx="12" fill="#14B8A6"/>
    <circle cx="128" cy="138" r="13" fill="#0EA5E9"/>
    <circle cx="384" cy="338" r="13" fill="#4C1D95"/>
  </g>
  <path d="M154 424h60m84 0h60M184 424v-32m144 32v-32M214 392h84" fill="none" stroke="#E0F2FE" stroke-width="18" stroke-linecap="round" opacity="0.9"/>
</svg>
