<svg xmlns="http://www.w3.org/2000/svg" width="512" height="512" viewBox="0 0 512 512" role="img" aria-label="FDE digest avatar">
  <defs>
    <linearGradient id="bg" x1="44" y1="42" x2="464" y2="470" gradientUnits="userSpaceOnUse">
      <stop stop-color="#F97316"/>
      <stop offset="0.52" stop-color="#B45309"/>
      <stop offset="1" stop-color="#0F766E"/>
    </linearGradient>
    <filter id="shadow" x="-20%" y="-20%" width="140%" height="140%">
      <feDropShadow dx="0" dy="18" stdDeviation="18" flood-color="#020617" flood-opacity="0.34"/>
    </filter>
  </defs>
  <rect width="512" height="512" rx="112" fill="url(#bg)"/>
  <circle cx="408" cy="104" r="62" fill="#FED7AA" opacity="0.25"/>
  <circle cx="108" cy="396" r="84" fill="#99F6E4" opacity="0.22"/>
  <path d="M78 154c64 28 98 90 170 78 74-12 104-76 186-48" fill="none" stroke="#FFEDD5" stroke-width="15" stroke-linecap="round" opacity="0.76"/>
  <path d="M86 350c82-48 142-10 204-52 42-28 62-76 134-88" fill="none" stroke="#CCFBF1" stroke-width="15" stroke-linecap="round" opacity="0.78"/>
  <g filter="url(#shadow)">
    <rect x="58" y="128" width="396" height="256" rx="54" fill="#111827"/>
    <rect x="86" y="156" width="340" height="200" rx="36" fill="#FFF7ED"/>
    <path d="M116 188h102v36h-58v40h48v34h-48v58h-44V188Z" fill="#EA580C"/>
    <path fill-rule="evenodd" clip-rule="evenodd" d="M232 188h66c58 0 96 34 96 84s-38 84-96 84h-66V188Zm44 38v92h20c32 0 52-17 52-46s-20-46-52-46h-20Z" fill="#0F766E"/>
    <path d="M406 188h-72v36h28v96h-28v36h72v-36h-26v-30h22v-34h-22v-32h26v-36Z" fill="#0F172A" opacity="0.92"/>
    <circle cx="104" cy="172" r="11" fill="#F97316"/>
    <circle cx="408" cy="340" r="11" fill="#14B8A6"/>
  </g>
  <path d="M188 430h136m-68-58v58m-40-28l40-30 40 30" fill="none" stroke="#FFF7ED" stroke-width="18" stroke-linecap="round" stroke-linejoin="round" opacity="0.92"/>
</svg>
